<?xml version="1.0" encoding="utf-8"?>
<!-- Generator: Adobe Illustrator 12.0.1, SVG Export Plug-In . SVG Version: 6.00 Build 51448)  -->
<!DOCTYPE svg PUBLIC "-//W3C//DTD SVG 1.1//EN" "http://www.w3.org/Graphics/SVG/1.1/DTD/svg11.dtd" [
	<!ENTITY ns_svg "http://www.w3.org/2000/svg">
	<!ENTITY ns_xlink "http://www.w3.org/1999/xlink">
]>
<svg  version="1.1" id="Layer_1" xmlns="&ns_svg;" xmlns:xlink="&ns_xlink;" width="262.551" height="162.048"
	 viewBox="0 0 262.551 162.048" overflow="visible" enable-background="new 0 0 262.551 162.048" xml:space="preserve">
<g>
	<g>
		<g>
			<path fill="#FFFFFF" stroke="#FFFFFF" stroke-width="6.0671" d="M3.034,86.053h15.347c17.196,0,32.383,5.785,32.383,28.044
				S35.577,142.14,18.381,142.14H3.034V86.053z M14.281,133.301h6.27c9.401,0,18.482-6.991,18.482-19.204
				c0-12.216-9.081-19.204-18.482-19.204h-6.27V133.301z"/>
			<path fill="#FFFFFF" stroke="#FFFFFF" stroke-width="6.0671" d="M51.404,86.053h19.608c7.231,0,18.078,2.088,18.078,14.383
				c0,6.668-4.5,11.33-11.17,12.537v0.16c7.635,0.722,12.858,5.867,12.858,12.775c0,14.144-12.697,16.231-19.767,16.231H51.404
				V86.053z M62.654,108.715h4.581c4.739,0,10.606-1.048,10.606-6.834c0-6.506-5.705-6.988-10.847-6.988h-4.341V108.715z
				 M62.654,133.301h5.304c5.223,0,11.572-1.284,11.572-7.795c0-7.312-5.948-8.437-11.572-8.437h-5.304V133.301z"/>
			<path fill="#FFFFFF" stroke="#FFFFFF" stroke-width="6.0671" d="M114.804,99.794c-6.349,0-10.446,2.812-12.856,6.829h-0.162
				v-5.866H91.501v58.257h9.038c0.728-0.402,1.328-1.041,1.73-1.987v-19.628h0.159c3.777,4.58,7.553,5.707,12.135,5.707
				c12.936,0,17.597-10.445,17.597-21.777C132.16,109.916,127.499,99.794,114.804,99.794z M111.831,134.748
				c-7.152,0-9.484-7.554-9.484-13.42c0-5.785,2.734-13.178,9.644-13.178c6.99,0,8.919,7.635,8.919,13.178
				C120.91,127.035,118.901,134.748,111.831,134.748z"/>
			<path fill="#FFFFFF" stroke="#FFFFFF" stroke-width="6.0671" d="M100.54,159.014h1.73v-1.987
				C101.867,157.973,101.268,158.611,100.54,159.014z"/>
			<path fill="#FFFFFF" stroke="#FFFFFF" stroke-width="6.0671" d="M165.748,139.811c-3.938,2.168-8.438,3.295-14.225,3.295
				c-13.658,0-21.613-7.876-21.613-21.455c0-11.973,6.348-21.856,19.204-21.856c15.347,0,19.687,10.526,19.687,24.991h-28.606
				c0.483,6.666,5.144,10.444,11.813,10.444c5.221,0,9.722-1.929,13.74-4.177V139.811z M158.517,117.393
				c-0.323-5.223-2.732-9.726-8.76-9.726c-6.026,0-9.079,4.179-9.562,9.726H158.517z"/>
			<path fill="#FFFFFF" stroke="#FFFFFF" stroke-width="6.0671" d="M205.762,81.874h-9.319v23.705h-0.16
				c-3.215-3.938-6.99-5.785-12.374-5.785c-12.698,0-17.358,10.122-17.358,21.534c0,11.332,4.66,21.777,17.358,21.777
				c5.061,0,9.482-1.607,12.695-5.627h0.161v4.661h10.446V83.52C206.846,82.777,206.352,82.239,205.762,81.874z M186.88,134.748
				c-7.069,0-9.08-7.713-9.08-13.42c0-5.543,1.93-13.178,8.921-13.178c6.91,0,9.643,7.393,9.643,13.178
				C196.363,127.194,194.03,134.748,186.88,134.748z"/>
			<path fill="#FFFFFF" stroke="#FFFFFF" stroke-width="6.0671" d="M205.762,81.874c0.59,0.365,1.084,0.903,1.449,1.646v-1.646
				H205.762z"/>
			<rect x="210.505" y="100.757" fill="#FFFFFF" stroke="#FFFFFF" stroke-width="6.0671" width="10.768" height="41.383"/>
			<rect x="210.505" y="82.918" fill="#FFFFFF" stroke="#FFFFFF" stroke-width="6.0671" width="10.768" height="10.287"/>
			<path fill="#FFFFFF" stroke="#FFFFFF" stroke-width="6.0671" d="M226.415,102.926c4.176-1.927,9.802-3.132,14.382-3.132
				c12.615,0,17.841,5.222,17.841,17.437v5.305c0,4.178,0.081,7.312,0.158,10.366c0.082,3.132,0.242,6.023,0.484,9.238h-9.482
				c-0.402-2.169-0.402-4.899-0.483-6.185h-0.159c-2.49,4.58-7.875,7.15-12.778,7.15c-7.312,0-14.463-4.419-14.463-12.293
				c0-6.188,2.973-9.805,7.071-11.812c4.1-2.01,9.402-2.411,13.902-2.411h5.946c0-6.673-2.973-8.922-9.321-8.922
				c-4.58,0-9.162,1.771-12.776,4.503L226.415,102.926z M239.03,135.229c3.295,0,5.864-1.446,7.553-3.693
				c1.767-2.331,2.251-5.308,2.251-8.52h-4.661c-4.821,0-11.972,0.804-11.972,7.151C232.201,133.701,235.173,135.229,239.03,135.229
				z"/>
		</g>
	</g>
	<g>
		<linearGradient id="XMLID_14_" gradientUnits="userSpaceOnUse" x1="215.8887" y1="82.4268" x2="215.8887" y2="93.6968">
			<stop  offset="0" style="stop-color:#003048"/>
			<stop  offset="0.1626" style="stop-color:#00324A"/>
			<stop  offset="0.3076" style="stop-color:#00364F"/>
			<stop  offset="0.4458" style="stop-color:#003E57"/>
			<stop  offset="0.5798" style="stop-color:#004962"/>
			<stop  offset="0.7109" style="stop-color:#00576F"/>
			<stop  offset="0.8397" style="stop-color:#35697E"/>
			<stop  offset="0.9645" style="stop-color:#608090"/>
			<stop  offset="1" style="stop-color:#6D8896"/>
		</linearGradient>
		<path fill="url(#XMLID_14_)" d="M210.505,93.697h10.768c0.271,0,0.491-0.221,0.491-0.492V82.918c0-0.271-0.22-0.491-0.491-0.491
			h-10.768c-0.271,0-0.491,0.22-0.491,0.491v10.287C210.014,93.477,210.233,93.697,210.505,93.697z"/>
		<linearGradient id="XMLID_15_" gradientUnits="userSpaceOnUse" x1="234.8926" y1="99.3027" x2="234.8926" y2="143.5977">
			<stop  offset="0" style="stop-color:#003048"/>
			<stop  offset="0.1626" style="stop-color:#00324A"/>
			<stop  offset="0.3076" style="stop-color:#00364F"/>
			<stop  offset="0.4458" style="stop-color:#003E57"/>
			<stop  offset="0.5798" style="stop-color:#004962"/>
			<stop  offset="0.7109" style="stop-color:#00576F"/>
			<stop  offset="0.8397" style="stop-color:#35697E"/>
			<stop  offset="0.9645" style="stop-color:#608090"/>
			<stop  offset="1" style="stop-color:#6D8896"/>
		</linearGradient>
		<path fill="url(#XMLID_15_)" d="M259.287,132.889l-0.004-0.154l-0.154-10.199v-5.305c0-12.566-5.482-17.928-18.332-17.928
			c-4.679,0-10.405,1.247-14.588,3.178c-0.18,0.082-0.292,0.265-0.285,0.463l0.321,9.243c0.007,0.183,0.114,0.348,0.28,0.427
			c0.165,0.078,0.361,0.059,0.507-0.052c3.703-2.798,8.252-4.403,12.48-4.403c6.169,0,8.661,2.258,8.803,7.939
			c-0.865,0-5.428,0-5.428,0c-6.208,0-10.694,0.782-14.118,2.461c-3.87,1.896-6.199,4.903-7.006,8.928c0-12.227,0-26.729,0-26.729
			c0-0.271-0.22-0.491-0.491-0.491h-10.768c-0.271,0-0.491,0.22-0.491,0.491v41.383c0,0.271,0.22,0.491,0.491,0.491h10.768
			c0.271,0,0.491-0.22,0.491-0.491c0,0,0-5.696,0-8.433c1.558,6.443,8.258,9.891,14.613,9.891c5.024,0,9.868-2.508,12.505-6.324
			c0.055,1.43,0.131,3.324,0.434,4.955c0.043,0.233,0.246,0.402,0.482,0.402h9.482c0.137,0,0.268-0.057,0.36-0.157
			s0.14-0.234,0.129-0.371C259.514,138.699,259.364,135.857,259.287,132.889z M246.191,131.24c-1.721,2.289-4.196,3.498-7.161,3.498
			c-1.905,0-6.338-0.445-6.338-4.57c0-4.482,3.755-6.66,11.48-6.66c0,0,3.329,0,4.146,0
			C248.255,126.908,247.589,129.396,246.191,131.24z"/>
		<linearGradient id="XMLID_16_" gradientUnits="userSpaceOnUse" x1="105.1221" y1="81.3828" x2="105.1221" y2="159.5059">
			<stop  offset="0" style="stop-color:#003048"/>
			<stop  offset="0.1626" style="stop-color:#00324A"/>
			<stop  offset="0.3076" style="stop-color:#00364F"/>
			<stop  offset="0.4458" style="stop-color:#003E57"/>
			<stop  offset="0.5798" style="stop-color:#004962"/>
			<stop  offset="0.7109" style="stop-color:#00576F"/>
			<stop  offset="0.8397" style="stop-color:#35697E"/>
			<stop  offset="0.9645" style="stop-color:#608090"/>
			<stop  offset="1" style="stop-color:#6D8896"/>
		</linearGradient>
		<path fill="url(#XMLID_16_)" d="M204.575,81.383h-8.133c-0.271,0-0.491,0.22-0.491,0.491c0,0,0,20.794,0,22.677
			c-3.217-3.564-6.957-5.248-12.043-5.248c-10.293,0-14.63,6.352-16.468,12.259c-2.768-8.208-8.749-12.259-18.326-12.259
			c-8.494,0-14.907,4.444-17.877,12.18c-1.842-5.848-6.174-12.18-16.434-12.18c-5.419,0-9.71,2.076-12.527,5.979
			c0-1.597,0-4.525,0-4.525c0-0.271-0.22-0.491-0.491-0.491H91.501c-0.271,0-0.491,0.22-0.491,0.491c0,0,0,11.833,0,22.503
			c-1.04-5.256-5.211-9.102-11.124-10.286c6.015-1.777,9.695-6.421,9.695-12.538c0-12.941-11.634-14.873-18.569-14.873H51.404
			c-0.271,0-0.491,0.22-0.491,0.49c0,0,0,11.812,0,22.836c-1.931-15.468-12.829-23.326-32.532-23.326H3.034
			c-0.271,0-0.491,0.22-0.491,0.49v56.087c0,0.271,0.22,0.491,0.491,0.491h15.347c19.703,0,30.601-7.859,32.532-23.326
			c0,11.023,0,22.835,0,22.835c0,0.271,0.22,0.491,0.491,0.491h19.608c5.628,0,18.128-1.416,19.998-13.535
			c0,14.947,0,29.918,0,29.918c0,0.271,0.22,0.492,0.491,0.492h7.537c1.918-0.28,3.391-1.55,3.723-4.49c0-5.572,0-15.154,0-16.531
			c4.028,4.428,8.045,5.113,11.803,5.113c10.36,0,14.753-6.408,16.632-12.312c3.083,7.925,10.211,12.312,20.328,12.312
			c5.708,0,10.303-1.067,14.462-3.357c0.156-0.086,0.254-0.251,0.254-0.43v-8.758c0-0.175-0.093-0.336-0.243-0.424
			s-0.336-0.09-0.488-0.006c-3.424,1.916-8.052,4.115-13.5,4.115c-6.44,0-10.586-3.538-11.242-9.462c1.076,0,24.732,0,25.529,0
			c1.2,11.637,7.585,18.321,17.613,18.321c5.206,0,9.327-1.765,12.365-5.105c0,1.242,0,3.647,0,3.647
			c0,0.271,0.22,0.491,0.491,0.491h10.446c0.271,0,0.491-0.22,0.491-0.491V84.988C207.257,82.828,206.086,81.753,204.575,81.383z
			 M20.551,132.81c0,0-4.944,0-5.778,0c0-0.944,0-36.481,0-37.426c0.834,0,5.778,0,5.778,0c8.722,0,17.991,6.559,17.991,18.713
			S29.272,132.81,20.551,132.81z M63.145,95.384c0.772,0,3.85,0,3.85,0c5.24,0,10.355,0.501,10.355,6.497
			c0,4.209-3.403,6.342-10.115,6.342c0,0-3.307,0-4.09,0C63.145,107.344,63.145,96.264,63.145,95.384z M67.958,132.81
			c0,0-4.004,0-4.813,0c0-0.896,0-14.354,0-15.249c0.809,0,4.813,0,4.813,0c5.159,0,11.081,0.902,11.081,7.945
			C79.039,130.353,75.311,132.81,67.958,132.81z M111.831,134.256c-6.638,0-8.993-6.964-8.993-12.928
			c0-6.109,2.864-12.686,9.153-12.686c8.021,0,8.428,10.566,8.428,12.686C120.419,123.486,120.005,134.256,111.831,134.256z
			 M140.766,116.901c0.669-5.552,3.906-8.743,8.991-8.743c6.383,0,7.901,5.253,8.216,8.743
			C156.982,116.901,141.806,116.901,140.766,116.901z M186.88,134.256c-8.175,0-8.589-10.77-8.589-12.928
			c0-2.119,0.406-12.686,8.43-12.686c6.288,0,9.151,6.576,9.151,12.686C195.872,127.292,193.517,134.256,186.88,134.256z"/>
	</g>
	<g>
		<path fill="#004563" d="M184.007,65.5c-1.928,0.029-4.055-0.01-6.305-0.049c-13.966-0.249-34.04-0.584-45.843,14.869
			c-11.804-15.453-31.877-15.117-45.845-14.869c-2.25,0.039-4.376,0.078-6.303,0.049c-0.462-0.005-4.855,0.136-13.06,0.418
			c0,0,0.556,10.304,7.805,10.304c2.603,0,4.485-0.061,5.18-0.066c2.023,0.027,4.23-0.012,6.567-0.052
			c19.06-0.34,34.179,0.724,40.959,17.364l1.352,3.318h3.104h0.476h3.106l1.353-3.318c6.779-16.64,21.897-17.705,40.958-17.364
			c2.338,0.041,4.545,0.08,6.568,0.052c0.693,0.005,2.577,0.066,5.179,0.066c7.251,0,7.806-10.304,7.806-10.304
			C188.861,65.636,184.467,65.496,184.007,65.5z"/>
	</g>
	<g>
		<radialGradient id="XMLID_17_" cx="130.2891" cy="61.5864" r="63.0372" gradientUnits="userSpaceOnUse">
			<stop  offset="0" style="stop-color:#6D8896"/>
			<stop  offset="0.0435" style="stop-color:#4B7487"/>
			<stop  offset="0.0933" style="stop-color:#286379"/>
			<stop  offset="0.1494" style="stop-color:#00556C"/>
			<stop  offset="0.2114" style="stop-color:#004962"/>
			<stop  offset="0.2815" style="stop-color:#004059"/>
			<stop  offset="0.3633" style="stop-color:#003951"/>
			<stop  offset="0.4644" style="stop-color:#00344C"/>
			<stop  offset="0.6062" style="stop-color:#003149"/>
			<stop  offset="1" style="stop-color:#003048"/>
		</radialGradient>
		<path fill="url(#XMLID_17_)" d="M137.327,1.135L137.327,1.135c-2.923,1.367-5.142,3.79-6.243,6.822
			c-0.487,1.347-0.73,2.741-0.73,4.132c0,1.746,0.382,3.487,1.146,5.117c1.781,3.813,5.409,6.26,9.504,6.761
			c0.106,1.142,0.227,2.284,0.227,3.441c0,0.553-0.041,1.108-0.064,1.663c-0.494,0.127-1.016,0.134-1.482,0.352
			c-2.007,0.936-3.525,2.597-4.28,4.677c-0.335,0.922-0.501,1.878-0.501,2.831c0,1.198,0.264,2.391,0.785,3.508
			c0.48,1.023,1.215,1.864,2.054,2.605c-1.188,2.629-2.685,5.213-4.495,7.717c-0.17-0.039-0.337-0.076-0.51-0.104
			c-0.546-3.015-1.326-5.929-2.355-8.693c0.611-1.083,1.019-2.25,1.019-3.462c0-1.022-0.22-2.049-0.671-3.015
			c-1.11-2.374-3.376-3.848-5.931-4.045c-2.954-4.181-6.559-7.778-10.724-10.754c0.114-0.599,0.311-1.194,0.311-1.79
			c0-3.917-2.425-7.612-6.304-9.027c-4.965-1.802-10.471,0.773-12.274,5.736c-0.873,2.406-0.758,5.007,0.325,7.325
			s3.005,4.074,5.411,4.947c2.871,1.041,5.989,0.458,8.492-1.206c3.171,2.25,5.937,4.973,8.266,8.116
			c-0.728,1.152-1.239,2.411-1.239,3.753c0,1.019,0.221,2.047,0.672,3.017c1.162,2.48,3.579,3.991,6.215,4.089
			c0.704,2.128,1.263,4.369,1.655,6.709c-0.221,0.171-0.45,0.333-0.653,0.524c-3.313-2.269-6.775-4.13-10.358-5.501
			c-0.126-0.428-0.254-0.866-0.254-0.866c-0.814-1.739-2.254-3.056-4.058-3.709c-1.8-0.651-3.746-0.562-5.479,0.25
			c-0.769,0.357-1.421,0.894-2.017,1.508c-3.976-0.389-7.964-0.2-11.908,0.452c-2.589-3.858-7.619-5.437-11.945-3.411
			c-4.791,2.242-6.865,7.961-4.625,12.749c2.243,4.789,7.962,6.861,12.749,4.625c2.829-1.323,4.69-3.887,5.262-6.873
			c2.897-0.482,5.836-0.668,8.795-0.445c0.093,0.301,0.097,0.634,0.23,0.92c1.675,3.583,5.949,5.137,9.529,3.465
			c0.778-0.366,1.44-0.89,2.031-1.491c3.123,1.308,6.182,3.037,9.123,5.205c0.017,1.311,0.299,2.604,0.859,3.788
			c1.04,2.234,2.896,3.934,5.222,4.778c2.328,0.846,4.844,0.734,7.086-0.314c2.479-1.159,4.206-3.33,4.926-5.916
			c5.223-0.753,10.094-2.186,14.519-4.296c2.022,1.218,4.49,1.486,6.673,0.465c2.572-1.205,4.115-3.771,4.115-6.487
			c0-0.326-0.113-0.656-0.159-0.986c2.217-1.971,4.24-4.171,6.056-6.563c2.378,0.585,4.858,0.482,7.111-0.574
			c2.606-1.22,4.579-3.381,5.557-6.081c2.025-5.579-0.866-11.765-6.449-13.798c-5.58-2.019-11.771,0.872-13.802,6.45
			c-0.432,1.193-0.642,2.428-0.642,3.655c0,2.296,0.765,4.537,2.149,6.408c-1.337,1.731-2.826,3.35-4.466,4.834
			c-1.793-0.684-3.767-0.68-5.541,0.152c-2.42,1.128-3.926,3.518-4.061,6.118c-3.604,1.65-7.58,2.787-11.853,3.415
			c2.273-3.198,4.152-6.516,5.563-9.915c0.61-0.128,1.243-0.186,1.809-0.45c2.007-0.937,3.527-2.601,4.282-4.683
			c0.335-0.922,0.501-1.876,0.501-2.829c0-1.198-0.263-2.389-0.785-3.506c-0.542-1.159-1.403-2.093-2.397-2.885
			c0.07-1.032,0.141-2.066,0.141-3.104c0-1.579-0.154-3.155-0.316-4.729c2.639-1.406,4.666-3.668,5.691-6.499
			c0.489-1.345,0.731-2.738,0.731-4.126c0-1.747-0.383-3.486-1.145-5.113C150.579,0.932,143.368-1.686,137.327,1.135z"/>
	</g>
	<g>
		<g>
			<g>
				<radialGradient id="XMLID_18_" cx="131.353" cy="59.6313" r="55.6664" gradientUnits="userSpaceOnUse">
					<stop  offset="0" style="stop-color:#FFD528"/>
					<stop  offset="0.222" style="stop-color:#FFD227"/>
					<stop  offset="0.4435" style="stop-color:#FFC925"/>
					<stop  offset="0.6647" style="stop-color:#FDBB21"/>
					<stop  offset="0.8846" style="stop-color:#FAA61D"/>
					<stop  offset="1" style="stop-color:#F8991D"/>
				</radialGradient>
				<path fill="url(#XMLID_18_)" d="M128.544,38.833c0.172-2.384-1.622-4.455-4.006-4.626c-2.385-0.171-4.454,1.623-4.625,4.007
					c-0.172,2.384,1.623,4.455,4.011,4.624C126.303,43.011,128.374,41.217,128.544,38.833z"/>
				<circle fill="url(#XMLID_18_)" cx="131.353" cy="59.631" r="6.69"/>
				<circle fill="url(#XMLID_18_)" cx="82.981" cy="50.263" r="6.493"/>
				<path fill="url(#XMLID_18_)" d="M111.45,19.487c0.257-3.577-2.437-6.684-6.014-6.941c-3.575-0.253-6.682,2.435-6.937,6.012
					c-0.257,3.577,2.433,6.685,6.014,6.941C108.087,25.755,111.193,23.063,111.45,19.487z"/>
				<path fill="url(#XMLID_18_)" d="M108.147,45.254c-2.372-0.171-4.433,1.612-4.605,3.986c-0.168,2.372,1.614,4.433,3.989,4.604
					c2.372,0.169,4.434-1.616,4.605-3.988C112.303,47.484,110.52,45.422,108.147,45.254z"/>
				<path fill="url(#XMLID_18_)" d="M174.369,26.85c-3.894-0.279-7.277,2.651-7.555,6.546c-0.279,3.895,2.651,7.277,6.544,7.557
					c3.897,0.281,7.277-2.651,7.559-6.546C181.194,30.514,178.264,27.129,174.369,26.85z"/>
				<circle fill="url(#XMLID_18_)" cx="158.276" cy="51.767" r="4.327"/>
				<circle fill="url(#XMLID_18_)" cx="143.191" cy="36.932" r="5.226"/>
				<path fill="url(#XMLID_18_)" d="M143.05,3.719c-4.624-0.333-8.638,3.146-8.971,7.768c-0.328,4.625,3.147,8.64,7.77,8.971
					c4.626,0.33,8.638-3.149,8.97-7.771C151.147,8.064,147.673,4.049,143.05,3.719z"/>
			</g>
		</g>
	</g>
</g>
</svg>
